<svg width="427" height="427" viewBox="0 0 427 427" fill="none" xmlns="http://www.w3.org/2000/svg">
<path d="M427 326.57H0V326.783H427V326.57Z" fill="#EBEBEB"/>
<path d="M202.398 288.481H37.4991C36.2073 288.479 34.9692 287.964 34.0566 287.05C33.1439 286.136 32.6313 284.897 32.6313 283.605V51.8036C32.6426 50.5192 33.1601 49.2911 34.0716 48.3861C34.983 47.4811 36.2147 46.9722 37.4991 46.97H202.398C203.691 46.97 204.932 47.4837 205.846 48.3982C206.761 49.3127 207.274 50.553 207.274 51.8463V283.605C207.274 284.898 206.761 286.138 205.846 287.053C204.932 287.967 203.691 288.481 202.398 288.481ZM37.4991 47.1408C36.264 47.143 35.0801 47.6353 34.2075 48.5095C33.3349 49.3837 32.8448 50.5684 32.8448 51.8036V283.605C32.8448 284.84 33.3349 286.025 34.2075 286.899C35.0801 287.773 36.264 288.265 37.4991 288.268H202.398C203.634 288.265 204.819 287.773 205.693 286.899C206.567 286.025 207.059 284.841 207.061 283.605V51.8036C207.059 50.5676 206.567 49.3829 205.693 48.509C204.819 47.635 203.634 47.143 202.398 47.1408H37.4991Z" fill="#EBEBEB"/>
<path d="M387.127 288.481H222.219C220.927 288.479 219.688 287.964 218.774 287.05C217.86 286.136 217.345 284.897 217.343 283.605V51.8036C217.356 50.5184 217.876 49.2904 218.789 48.3856C219.702 47.4808 220.934 46.9721 222.219 46.97H387.127C388.41 46.9744 389.639 47.4843 390.549 48.3891C391.458 49.2939 391.975 50.5207 391.986 51.8036V283.605C391.986 284.895 391.475 286.133 390.564 287.047C389.653 287.961 388.417 288.477 387.127 288.481ZM222.219 47.1408C220.983 47.143 219.799 47.635 218.925 48.509C218.051 49.3829 217.559 50.5676 217.557 51.8036V283.605C217.559 284.841 218.051 286.025 218.925 286.899C219.799 287.773 220.983 288.265 222.219 288.268H387.127C388.363 288.265 389.547 287.773 390.421 286.899C391.295 286.025 391.787 284.841 391.79 283.605V51.8036C391.787 50.5676 391.295 49.3829 390.421 48.509C389.547 47.635 388.363 47.143 387.127 47.1408H222.219Z" fill="#EBEBEB"/>
<path d="M171.176 334.7H148.972V334.913H171.176V334.7Z" fill="#EBEBEB"/>
<path d="M91.0022 332.385H44.8008V332.599H91.0022V332.385Z" fill="#EBEBEB"/>
<path d="M148.118 342.633H125.64V342.847H148.118V342.633Z" fill="#EBEBEB"/>
<path d="M253.689 341.199H220.528V341.412H253.689V341.199Z" fill="#EBEBEB"/>
<path d="M270.419 341.199H261.29V341.412H270.419V341.199Z" fill="#EBEBEB"/>
<path d="M384.223 337.595H337.629V337.808H384.223V337.595Z" fill="#EBEBEB"/>
<path d="M325.425 318.995H364.41V211.843H325.425V318.995Z" fill="#F0F0F0"/>
<path d="M155.197 326.561H356.921V318.986H155.197V326.561Z" fill="#F0F0F0"/>
<path d="M325.425 211.835H147.716V318.986H325.425V211.835Z" fill="#F5F5F5"/>
<path d="M326.108 219.094H147.716V258.318H326.108V219.094Z" fill="#F0F0F0"/>
<path d="M326.108 265.466H147.716V304.69H326.108V265.466Z" fill="#F0F0F0"/>
<path d="M325.425 258.309H332.172V219.085H325.425V258.309Z" fill="#E6E6E6"/>
<path d="M325.425 304.682H332.172V265.457H325.425V304.682Z" fill="#E6E6E6"/>
<path d="M142.524 211.835L325.425 211.835V205.242L142.524 205.242V211.835Z" fill="#F0F0F0"/>
<path d="M369.859 205.242H325.425V211.835H369.859V205.242Z" fill="#E6E6E6"/>
<path d="M280.24 185.087H371.985V69.7632L280.24 69.7632V185.087Z" fill="#F0F0F0"/>
<path d="M259.983 185.087H368.467V69.7632L259.983 69.7632V185.087Z" fill="#F5F5F5"/>
<path d="M269.07 78.8498V176.001H359.38V78.8498H269.07Z" fill="white"/>
<path d="M324.221 137.938L341.48 129.936V124.906L324.221 116.887V122.916L334.708 127.434L324.221 131.952V137.938Z" fill="#E6E6E6"/>
<path d="M312.965 114.564H309.814L315.399 140.278H318.542L312.965 114.564Z" fill="#E6E6E6"/>
<path d="M304.22 131.952L293.776 127.434L304.263 122.916V116.887L286.944 124.906V129.936L304.203 137.938L304.22 131.952Z" fill="#E6E6E6"/>
<path d="M100.106 326.57H106.118L106.118 130.85H100.106L100.106 326.57Z" fill="#F0F0F0"/>
<path d="M98.8505 325.203L98.6882 324.349C99.3066 324.151 99.8778 323.828 100.367 323.4C100.856 322.973 101.252 322.45 101.532 321.864C103.095 319.097 104.043 313.196 99.696 300.83C93.0006 281.769 96.9973 266.397 104.965 235.755C106.349 230.418 107.92 224.371 109.551 217.821C115.674 193.337 110.012 178.153 105.46 165.949C101.933 156.478 99.1409 148.997 102.711 140.329L103.505 140.654C100.089 149.006 102.796 156.35 106.263 165.65C110.858 177.956 116.571 193.286 110.38 218.018C108.748 224.559 107.177 230.606 105.794 235.952C97.8684 266.448 93.8888 281.752 100.507 300.608C104.974 313.324 103.923 319.473 102.215 322.385C101.876 323.059 101.403 323.657 100.824 324.142C100.246 324.627 99.5739 324.988 98.8505 325.203Z" fill="#F0F0F0"/>
<path d="M92.2234 326.57H113.992L107.937 323H98.2783L92.2234 326.57Z" fill="#F0F0F0"/>
<path d="M60.0447 155.778H146.171L136.691 83.4102H69.5241L60.0447 155.778Z" fill="#F5F5F5"/>
<path d="M187.778 167.708H233.757L227.702 205.242H193.832L187.778 167.708Z" fill="#F0F0F0"/>
<path d="M206.25 179.921C218.786 175.386 228.385 168.571 217.642 154.779C206.899 140.987 190.254 141.055 179.033 147.161C164.737 154.933 167.606 177.436 167.606 177.436C167.606 177.436 193.713 184.464 206.25 179.921Z" fill="#E0E0E0"/>
<path d="M218.436 167.384C208.846 160.851 202.048 153.293 213.175 145.317C224.303 137.34 238.027 141.431 246.277 148.835C256.789 158.28 250.717 174.856 250.717 174.856C250.717 174.856 228.018 173.883 218.436 167.384Z" fill="#E6E6E6"/>
<path d="M201.544 150.808C212.766 150.133 222.177 147.204 216.865 135.052C211.553 122.899 198.077 119.492 187.564 121.575C174.131 124.231 170.962 141.038 170.962 141.038C170.962 141.038 190.331 151.491 201.544 150.808Z" fill="#F0F0F0"/>
<path d="M215.635 143.643C206.301 140.637 198.982 136.136 206.096 127.007C213.21 117.878 225.311 117.929 233.765 121.96C244.543 127.084 243.586 141.995 243.586 141.995C243.586 141.995 224.969 146.64 215.635 143.643Z" fill="#EBEBEB"/>
<path d="M198.128 128.1C207.445 131.174 216.011 131.84 215.626 120.277C215.242 108.714 205.455 101.626 196.249 99.8667C184.507 97.6805 176.513 110.277 176.513 110.277C176.513 110.277 188.828 125 198.128 128.1Z" fill="#F5F5F5"/>
<path d="M221.775 123.104C215.106 123.565 209.341 122.557 211.527 114.983C213.714 107.408 221.4 104.393 227.753 104.811C235.866 105.349 239.018 115.059 239.018 115.059C239.018 115.059 228.436 122.651 221.775 123.104Z" fill="#FAFAFA"/>
<path d="M213.5 365.136C304.948 365.136 379.082 360.808 379.082 355.469C379.082 350.13 304.948 345.802 213.5 345.802C122.052 345.802 47.9179 350.13 47.9179 355.469C47.9179 360.808 122.052 365.136 213.5 365.136Z" fill="#F5F5F5"/>
<path d="M358.048 214.431H67.9016V224.841H358.048V214.431Z" fill="#407BFF"/>
<path opacity="0.3" d="M145.556 214.431H67.9016V224.841H145.556V214.431Z" fill="white"/>
<path d="M146.794 224.841H140.039L143.574 355.315H146.794H150.014L153.558 224.841H146.794Z" fill="#407BFF"/>
<path opacity="0.3" d="M143.574 355.315H146.794V227.642L140.15 228.855L143.574 355.315Z" fill="white"/>
<path d="M82.7697 224.841H76.0146L79.5501 355.315H82.7697H85.9893L89.5248 224.841H82.7697Z" fill="#407BFF"/>
<path opacity="0.3" d="M79.5501 355.315H82.7697V227.642L76.117 228.855L79.5501 355.315Z" fill="white"/>
<path d="M343.18 224.841H336.425L339.96 355.315H343.18H346.399L349.944 224.841H343.18Z" fill="#407BFF"/>
<path opacity="0.3" d="M339.96 355.315H343.18V227.642L336.536 228.855L339.96 355.315Z" fill="white"/>
<path d="M279.156 224.841H272.4L275.936 355.315H279.156H282.375L285.911 224.841H279.156Z" fill="#407BFF"/>
<path opacity="0.3" d="M275.936 355.315H279.156V227.642L272.511 228.855L275.936 355.315Z" fill="white"/>
<path d="M205.626 158.699H136.64C136.08 158.677 135.523 158.787 135.014 159.022C134.505 159.256 134.059 159.607 133.712 160.047C133.364 160.486 133.126 161.002 133.016 161.551C132.906 162.101 132.928 162.668 133.079 163.208L142.268 207.061C142.564 208.301 143.255 209.411 144.238 210.224C145.222 211.036 146.443 211.505 147.716 211.561H216.754C217.313 211.583 217.869 211.473 218.377 211.239C218.885 211.005 219.331 210.655 219.678 210.216C220.025 209.777 220.263 209.263 220.374 208.715C220.485 208.166 220.465 207.6 220.315 207.061L211.117 163.208C210.821 161.959 210.124 160.842 209.132 160.028C208.14 159.213 206.909 158.746 205.626 158.699Z" fill="#263238"/>
<path d="M148.314 209.059C147.454 209.001 146.634 208.673 145.971 208.12C145.308 207.568 144.837 206.821 144.625 205.985L135.436 162.132C135.357 161.842 135.345 161.538 135.4 161.242C135.454 160.946 135.575 160.667 135.752 160.424C135.936 160.216 136.164 160.052 136.42 159.944C136.675 159.836 136.952 159.787 137.229 159.8H206.267C207.127 159.859 207.947 160.187 208.61 160.739C209.272 161.291 209.744 162.039 209.956 162.875L219.145 206.728C219.224 207.018 219.236 207.322 219.181 207.618C219.127 207.913 219.006 208.193 218.829 208.436C218.646 208.645 218.418 208.81 218.162 208.918C217.906 209.026 217.629 209.074 217.352 209.059H148.314Z" fill="white"/>
<path opacity="0.4" d="M200.4 205.549L191.689 163.968C191.64 163.722 191.646 163.468 191.706 163.224C191.766 162.981 191.88 162.753 192.038 162.558C192.196 162.364 192.395 162.206 192.621 162.097C192.847 161.988 193.095 161.93 193.346 161.927H204.55C204.939 161.93 205.314 162.065 205.616 162.311C205.917 162.556 206.125 162.896 206.207 163.276L214.918 204.823C214.967 205.07 214.961 205.323 214.9 205.567C214.84 205.811 214.727 206.038 214.569 206.233C214.41 206.428 214.211 206.585 213.985 206.695C213.759 206.804 213.512 206.862 213.261 206.864H202.056C201.673 206.863 201.301 206.733 201 206.494C200.699 206.256 200.488 205.923 200.4 205.549Z" fill="#407BFF"/>
<path d="M141.183 165.565L140.808 163.763H154.642L155.018 165.565H141.183Z" fill="#407BFF"/>
<path d="M147.571 170.04L147.195 168.238H171.441L171.825 170.04H147.571Z" fill="#EBEBEB"/>
<path d="M148.852 174.506L148.468 172.704H175.651L176.026 174.506H148.852Z" fill="#EBEBEB"/>
<path d="M150.125 178.981L149.749 177.179H171.628L172.013 178.981H150.125Z" fill="#EBEBEB"/>
<path d="M145.394 186.232L145.009 184.43H153.763L154.138 186.232H145.394Z" fill="#407BFF"/>
<path d="M151.773 190.698L151.397 188.896H162.055L162.439 190.698H151.773Z" fill="#EBEBEB"/>
<path d="M164.993 190.698L164.609 188.896H175.275L175.651 190.698H164.993Z" fill="#EBEBEB"/>
<path d="M153.054 195.173L152.678 193.371H188.717L189.093 195.173H153.054Z" fill="#EBEBEB"/>
<path d="M154.326 199.64L153.951 197.838H181.432L181.808 199.64H154.326Z" fill="#EBEBEB"/>
<path d="M237.856 211.297H147.025C144.548 211.297 142.943 212.706 143.463 214.431H243.305C242.792 212.706 240.333 211.297 237.856 211.297Z" fill="#263238"/>
<path opacity="0.1" d="M117.177 147.614L108.458 106.058C108.41 105.813 108.417 105.56 108.478 105.317C108.539 105.075 108.653 104.848 108.811 104.654C108.969 104.461 109.168 104.304 109.393 104.195C109.618 104.087 109.865 104.029 110.115 104.026H180.655C181.042 104.028 181.417 104.162 181.718 104.406C182.019 104.65 182.229 104.988 182.312 105.367L191.031 146.888C191.08 147.134 191.074 147.388 191.014 147.632C190.954 147.875 190.84 148.103 190.682 148.298C190.524 148.492 190.325 148.65 190.099 148.759C189.873 148.868 189.625 148.926 189.375 148.929H118.834C118.45 148.928 118.078 148.797 117.778 148.559C117.477 148.32 117.266 147.987 117.177 147.614Z" fill="#407BFF"/>
<path d="M142.251 105.392H127.442L127.109 103.795H141.918L142.251 105.392Z" fill="#407BFF"/>
<path opacity="0.4" d="M139.843 107.937H133.899L133.566 106.34H139.509L139.843 107.937Z" fill="#407BFF"/>
<path opacity="0.4" d="M149.732 107.937H140.577L140.244 106.34H149.399L149.732 107.937Z" fill="#407BFF"/>
<path opacity="0.4" d="M153.72 110.473H134.428L134.095 108.876H153.395L153.72 110.473Z" fill="#407BFF"/>
<path opacity="0.4" d="M151.269 113.018H134.958L134.625 111.421H150.936L151.269 113.018Z" fill="#407BFF"/>
<path opacity="0.4" d="M162.089 140.013H151.705L152.038 141.602H162.422L162.089 140.013Z" fill="#407BFF"/>
<path d="M149.143 136.529H133.933L133.6 134.932H148.809L149.143 136.529Z" fill="#407BFF"/>
<path opacity="0.4" d="M155.257 142.55H141.115L141.448 144.147H155.59L155.257 142.55Z" fill="#407BFF"/>
<path opacity="0.4" d="M150.97 140.013H140.585L140.919 141.602H151.303L150.97 140.013Z" fill="#407BFF"/>
<path opacity="0.4" d="M160.825 137.468H140.056L140.389 139.065H161.158L160.825 137.468Z" fill="#407BFF"/>
<path d="M141.73 93.5386H124.974L124.641 91.9502H141.397L141.73 93.5386Z" fill="#407BFF"/>
<path opacity="0.4" d="M150.005 99.5679H131.525L131.858 101.165H150.33L150.005 99.5679Z" fill="#407BFF"/>
<path opacity="0.4" d="M146.307 97.0315H130.995L131.328 98.6199H146.64L146.307 97.0315Z" fill="#407BFF"/>
<path opacity="0.4" d="M147.324 94.4866H130.466L130.799 96.0836H147.657L147.324 94.4866Z" fill="#407BFF"/>
<path d="M141.542 117.152H129.893L129.56 115.555H141.209L141.542 117.152Z" fill="#407BFF"/>
<path opacity="0.4" d="M159.835 123.172H137.076L137.409 124.769H160.159L159.835 123.172Z" fill="#407BFF"/>
<path opacity="0.4" d="M145.974 120.636H136.546L136.879 122.233H146.307L145.974 120.636Z" fill="#407BFF"/>
<path opacity="0.4" d="M156.205 120.636H146.777L147.11 122.233H156.538L156.205 120.636Z" fill="#407BFF"/>
<path opacity="0.4" d="M156.786 118.091H136.017L136.35 119.688H157.11L156.786 118.091Z" fill="#407BFF"/>
<path opacity="0.4" d="M156.743 130.799H138.664L138.997 132.387H157.076L156.743 130.799Z" fill="#407BFF"/>
<path opacity="0.4" d="M143.395 128.254H138.135L138.468 129.851H143.72L143.395 128.254Z" fill="#407BFF"/>
<path opacity="0.4" d="M151.619 128.254H144.113L144.446 129.851H151.952L151.619 128.254Z" fill="#407BFF"/>
<path opacity="0.4" d="M158.374 125.717H137.605L137.938 127.306H158.707L158.374 125.717Z" fill="#407BFF"/>
<path opacity="0.4" d="M174.728 125.29H167.29L166.957 123.693H174.404L174.728 125.29Z" fill="#407BFF"/>
<path opacity="0.4" d="M187.111 125.29H175.651L175.318 123.693H186.778L187.111 125.29Z" fill="#407BFF"/>
<path opacity="0.4" d="M191.979 127.835H167.82L167.486 126.238H191.646L191.979 127.835Z" fill="#407BFF"/>
<path opacity="0.4" d="M188.768 130.372H168.349L168.016 128.775H188.435L188.768 130.372Z" fill="#407BFF"/>
<path opacity="0.4" d="M197.915 115.188H174.78L175.113 116.776H198.248L197.915 115.188Z" fill="#407BFF"/>
<path opacity="0.4" d="M193.422 112.643H174.25L174.583 114.24H193.747L193.422 112.643Z" fill="#407BFF"/>
<path d="M189.955 110.106H168.844L169.177 111.695H190.288L189.955 110.106Z" fill="#407BFF"/>
<path opacity="0.4" d="M198.956 140.534H170.467L170.8 142.131H199.289L198.956 140.534Z" fill="#407BFF"/>
<path opacity="0.4" d="M181.74 137.998H169.937L170.271 139.586H182.073L181.74 137.998Z" fill="#407BFF"/>
<path opacity="0.4" d="M194.55 137.998H182.747L183.081 139.586H194.883L194.55 137.998Z" fill="#407BFF"/>
<path opacity="0.4" d="M195.404 135.453H169.408L169.741 137.05H195.737L195.404 135.453Z" fill="#407BFF"/>
<path opacity="0.4" d="M194.686 148.152H172.055L172.388 149.749H195.019L194.686 148.152Z" fill="#407BFF"/>
<path opacity="0.4" d="M178.11 145.616H171.526L171.859 147.213H178.443L178.11 145.616Z" fill="#407BFF"/>
<path opacity="0.4" d="M188.409 145.616H179.015L179.349 147.213H188.743L188.409 145.616Z" fill="#407BFF"/>
<path opacity="0.4" d="M197.001 143.071H170.996L171.329 144.668H197.325L197.001 143.071Z" fill="#407BFF"/>
<path opacity="0.4" d="M127.758 150.125H110.046L110.38 151.722H128.091L127.758 150.125Z" fill="#407BFF"/>
<path opacity="0.4" d="M122.523 147.588H109.517L109.85 149.177H122.848L122.523 147.588Z" fill="#407BFF"/>
<path opacity="0.4" d="M136.435 147.588H123.437L123.77 149.177H136.777L136.435 147.588Z" fill="#407BFF"/>
<path opacity="0.4" d="M134.992 145.043H108.987L109.321 146.64H135.316L134.992 145.043Z" fill="#407BFF"/>
<path d="M333.871 197.838H322.906L324.187 214.431H332.59L333.871 197.838Z" fill="#407BFF"/>
<path opacity="0.4" d="M333.871 197.838H322.906L324.187 214.431H332.59L333.871 197.838Z" fill="white"/>
<path d="M94.905 186.317H110.67L105.29 214.431H89.5248L94.905 186.317Z" fill="#263238"/>
<path d="M114.983 178.785H92.7188L98.953 214.431H121.217L114.983 178.785Z" fill="#407BFF"/>
<path d="M91.4036 178.785H92.7188L98.953 214.431H97.6378L91.4036 178.785Z" fill="#407BFF"/>
<path opacity="0.3" d="M91.4036 178.785H92.7188L98.953 214.431H97.6378L91.4036 178.785Z" fill="black"/>
<path d="M102.155 210.613L97.2535 182.594H111.789L116.682 210.613H102.155Z" fill="white"/>
<path opacity="0.6" d="M115.99 210.613L111.097 182.594H111.789L116.682 210.613H115.99Z" fill="#407BFF"/>
<path d="M225.26 133.224C225.576 133.907 225.473 134.633 225.02 134.838C224.568 135.043 223.953 134.659 223.637 133.984C223.321 133.309 223.432 132.575 223.876 132.37C224.32 132.165 224.944 132.507 225.26 133.224Z" fill="#263238"/>
<path d="M225.533 134.573C225.533 134.573 225.806 139.236 224.969 141.935C226.677 142.507 228.522 141.081 228.522 141.081L225.533 134.573Z" fill="#FF5652"/>
<path d="M225.345 127.579C225.272 127.639 225.183 127.675 225.089 127.682C224.533 127.696 223.989 127.842 223.5 128.108C223.012 128.374 222.593 128.752 222.279 129.21C222.251 129.263 222.213 129.309 222.166 129.346C222.12 129.384 222.067 129.412 222.009 129.428C221.952 129.444 221.892 129.449 221.833 129.442C221.774 129.434 221.717 129.415 221.665 129.385C221.614 129.356 221.569 129.316 221.533 129.268C221.497 129.221 221.471 129.166 221.457 129.109C221.442 129.051 221.439 128.991 221.449 128.932C221.458 128.873 221.479 128.817 221.511 128.766C221.897 128.179 222.42 127.693 223.034 127.35C223.647 127.006 224.335 126.816 225.038 126.793C225.131 126.788 225.223 126.813 225.302 126.863C225.381 126.914 225.442 126.988 225.476 127.075C225.51 127.162 225.515 127.258 225.492 127.348C225.468 127.439 225.417 127.519 225.345 127.579Z" fill="#263238"/>
<path d="M250.41 132.165C253.049 141.303 255.995 148.391 259.59 152.439C259.59 152.439 259.659 159.621 247.421 163.037C233.962 166.795 239.12 158.152 239.12 158.152C245.952 154.352 245.303 148.613 240.162 146.427L250.41 132.165Z" fill="#FF8B7B"/>
<path d="M262.443 150.688C262.204 147.349 261.888 143.54 259.829 143.438C257.558 143.335 244.406 149.211 241.597 153.353C238.787 157.495 244.278 161.551 244.278 161.551L262.443 150.688Z" fill="#263238"/>
<path d="M235.525 202.398L224.166 202.022L224.371 211.536C224.371 211.536 234.278 210.511 234.713 207.906L235.525 202.398Z" fill="#FF8B7B"/>
<path d="M218.163 206.694L216.967 211.561L224.371 211.544L224.166 202.031L218.163 206.694Z" fill="#FF8B7B"/>
<path d="M281.111 162.866L280.872 165.309C280.795 166.094 280.693 166.863 280.59 167.64C280.394 169.186 280.146 170.732 279.881 172.269C279.369 175.352 278.703 178.418 277.934 181.501C277.153 184.643 276.207 187.741 275.099 190.784C274.51 192.346 273.895 193.909 273.16 195.498C272.42 197.164 271.564 198.776 270.598 200.323C270.368 200.724 270.078 201.177 269.796 201.553C269.514 201.928 269.241 202.407 268.942 202.799C268.643 203.192 268.327 203.653 267.934 204.055L267.379 204.687C267.18 204.92 266.969 205.142 266.747 205.353C265.035 207.029 263.029 208.375 260.829 209.324C257.453 210.772 253.871 211.68 250.213 212.014C248.548 212.21 246.9 212.287 245.286 212.33C243.672 212.373 242.058 212.33 240.469 212.245C238.881 212.159 237.31 212.023 235.747 211.835C234.184 211.647 232.664 211.399 231.007 211.066L231.28 202.142C236.733 201.188 242.123 199.905 247.421 198.299C248.599 197.916 249.756 197.471 250.888 196.967C251.852 196.56 252.773 196.059 253.638 195.472C254.141 195.169 254.568 194.754 254.885 194.259L255.133 193.867C255.247 193.699 255.353 193.525 255.448 193.346C255.57 193.15 255.681 192.947 255.782 192.739C255.893 192.517 256.012 192.312 256.123 192.065C257.126 189.874 257.952 187.607 258.591 185.284C259.291 182.773 259.949 180.16 260.479 177.453C261.008 174.745 261.52 172.013 261.99 169.254L262.639 165.104L263.228 161.064L281.111 162.866Z" fill="#407BFF"/>
<path opacity="0.2" d="M281.111 162.866L280.872 165.309C280.795 166.094 280.693 166.863 280.59 167.64C280.394 169.186 280.146 170.732 279.881 172.269C279.369 175.352 278.703 178.418 277.934 181.501C277.153 184.643 276.207 187.741 275.099 190.784C274.51 192.346 273.895 193.909 273.16 195.498C272.42 197.164 271.564 198.776 270.598 200.323C270.368 200.724 270.078 201.177 269.796 201.553C269.514 201.928 269.241 202.407 268.942 202.799C268.643 203.192 268.327 203.653 267.934 204.055L267.379 204.687C267.18 204.92 266.969 205.142 266.747 205.353C265.035 207.029 263.029 208.375 260.829 209.324C257.453 210.772 253.871 211.68 250.213 212.014C248.548 212.21 246.9 212.287 245.286 212.33C243.672 212.373 242.058 212.33 240.469 212.245C238.881 212.159 237.31 212.023 235.747 211.835C234.184 211.647 232.664 211.399 231.007 211.066L231.28 202.142C236.733 201.188 242.123 199.905 247.421 198.299C248.599 197.916 249.756 197.471 250.888 196.967C251.852 196.56 252.773 196.059 253.638 195.472C254.141 195.169 254.568 194.754 254.885 194.259L255.133 193.867C255.247 193.699 255.353 193.525 255.448 193.346C255.57 193.15 255.681 192.947 255.782 192.739C255.893 192.517 256.012 192.312 256.123 192.065C257.126 189.874 257.952 187.607 258.591 185.284C259.291 182.773 259.949 180.16 260.479 177.453C261.008 174.745 261.52 172.013 261.99 169.254L262.639 165.104L263.228 161.064L281.111 162.866Z" fill="black"/>
<path d="M230.682 174.216C234.917 192.473 237.3 211.11 237.796 229.846H287.798C288.071 223.671 287.029 188.854 281.999 163.703C281.553 161.425 280.656 159.259 279.36 157.333C278.065 155.407 276.398 153.759 274.456 152.486C272.515 151.213 270.339 150.341 268.056 149.92C265.773 149.5 263.429 149.541 261.162 150.039L260.923 150.099C254.68 151.517 245.721 153.805 240.427 155.812L240.213 155.898C236.672 157.274 233.753 159.892 231.999 163.263C230.245 166.633 229.778 170.526 230.682 174.216Z" fill="#407BFF"/>
<path opacity="0.2" d="M233.936 190.186C234.329 192.586 234.73 195.13 235.098 197.795C239.188 193.525 240.486 180.442 240.486 180.442L233.936 190.186Z" fill="black"/>
<path d="M192.398 203.021L181.048 201.962L180.672 211.467C182.548 211.985 184.53 211.98 186.402 211.451C188.275 210.923 189.968 209.892 191.296 208.47L192.398 203.021Z" fill="#FF8B7B"/>
<path d="M175.651 204.764L172.013 211.297L180.706 211.467L181.082 201.962L175.651 204.764Z" fill="#FF8B7B"/>
<path d="M249.445 169.835C248.659 171.329 247.959 172.653 247.173 174.02C246.388 175.386 245.636 176.718 244.825 178.042C243.219 180.706 241.554 183.32 239.795 185.907C236.263 191.206 232.35 196.241 228.086 200.972C225.803 203.519 223.322 205.88 220.665 208.034C220.332 208.316 219.939 208.589 219.572 208.888C219.205 209.187 218.88 209.426 218.334 209.742C217.787 210.058 217.326 210.374 216.831 210.648C216.335 210.921 215.823 211.169 215.319 211.391C213.435 212.208 211.464 212.807 209.444 213.175C205.91 213.771 202.308 213.852 198.751 213.415C197.086 213.224 195.432 212.939 193.798 212.561C192.984 212.373 192.181 212.159 191.39 211.92C190.536 211.681 189.844 211.416 188.93 211.066L190.34 202.253C195.703 201.527 201.501 200.596 205.498 198.786C206.385 198.421 207.221 197.942 207.983 197.359C208.29 197.148 208.576 196.908 208.837 196.642C208.897 196.565 209.162 196.335 209.358 196.147C209.555 195.959 209.785 195.779 209.999 195.557C211.827 193.746 213.538 191.821 215.123 189.793C218.561 185.357 221.773 180.751 224.747 175.992C226.284 173.575 227.779 171.116 229.273 168.648L231.477 164.942L233.603 161.295L249.445 169.835Z" fill="#407BFF"/>
<path d="M235.721 348.09H226.378L221.673 326.441H231.024L235.721 348.09Z" fill="#FF8B7B"/>
<path d="M225.857 346.092H236.362C236.544 346.099 236.72 346.163 236.863 346.277C237.006 346.391 237.108 346.548 237.156 346.724L239 355.042C239.044 355.244 239.042 355.453 238.993 355.654C238.945 355.855 238.851 356.043 238.719 356.202C238.588 356.362 238.422 356.489 238.234 356.575C238.046 356.661 237.841 356.703 237.634 356.699C233.97 356.639 232.186 356.425 227.565 356.425C224.722 356.425 221.075 356.716 217.155 356.716C213.235 356.716 212.714 352.839 214.32 352.488C221.528 350.909 222.006 348.739 224.337 346.664C224.755 346.291 225.297 346.087 225.857 346.092Z" fill="#263238"/>
<g opacity="0.2">
<path d="M231.033 326.45H221.673L224.286 338.44L233.458 337.612L231.033 326.45Z" fill="black"/>
</g>
<path d="M247.412 121.183C250.828 129.825 253.202 134.718 250.948 140.995C247.532 150.432 235.414 151.389 229.521 143.925C224.226 137.204 219.598 124.197 226.284 117.049C227.749 115.465 229.594 114.281 231.645 113.611C233.696 112.941 235.884 112.806 238.002 113.22C240.119 113.635 242.096 114.584 243.743 115.977C245.39 117.371 246.653 119.163 247.412 121.183Z" fill="#FF8B7B"/>
<path d="M230.998 134.129C229.598 136.008 228.522 137.434 228.522 137.434C228.522 137.434 225.644 130.286 226.746 127.007C225.345 124.231 222.518 128.322 221.451 122.916C220.383 117.51 225.003 111.703 226.746 110.499C226.925 111.129 227.006 111.783 226.985 112.438C231.692 108.617 237.675 106.728 243.723 107.151C243.218 107.903 242.896 108.763 242.784 109.662C242.784 109.662 252.921 111.37 255.226 117.109C254.411 116.72 253.55 116.433 252.664 116.255C254.523 118.919 255.259 122.208 254.714 125.41C253.979 130.08 253.596 134.799 253.57 139.527C253.664 141.952 247.011 146.589 242.954 141.636C238.898 136.683 230.998 134.129 230.998 134.129Z" fill="#263238"/>
<path d="M235.226 132.268C235.755 134.281 235.605 136.412 234.799 138.331C233.714 140.893 231.485 140.278 230.384 138.041C229.384 136.034 228.744 132.31 230.512 130.525C232.279 128.74 234.56 129.851 235.226 132.268Z" fill="#FF8B7B"/>
<path d="M252.784 229.811C252.784 229.811 209.367 245.559 208.094 266.388C205.737 304.758 221.425 335.135 221.425 335.135L235.806 333.598C235.806 333.598 233.244 321.249 231.34 286.491C228.94 242.809 303.076 287.516 287.807 229.811H252.784Z" fill="#407BFF"/>
<path opacity="0.5" d="M252.784 229.811C252.784 229.811 209.367 245.559 208.094 266.388C205.737 304.758 221.425 335.135 221.425 335.135L235.806 333.598C235.806 333.598 233.244 321.249 231.34 286.491C228.94 242.809 303.076 287.516 287.807 229.811H252.784Z" fill="white"/>
<path d="M217.445 329.84C217.377 329.84 219.734 336.228 219.734 336.228L237.668 334.469L236.771 328.662L217.445 329.84Z" fill="#407BFF"/>
<path d="M195.335 349.158H185.984L183.251 327.5H192.603L195.335 349.158Z" fill="#FF8B7B"/>
<path d="M185.916 346.083H196.164C196.349 346.081 196.529 346.143 196.673 346.258C196.818 346.373 196.919 346.535 196.958 346.715L198.82 355.025C198.874 355.228 198.88 355.442 198.838 355.648C198.796 355.854 198.706 356.048 198.576 356.214C198.446 356.379 198.279 356.513 198.089 356.603C197.898 356.693 197.69 356.737 197.479 356.733C193.798 356.673 188.469 356.468 183.815 356.477C178.401 356.477 177.367 356.776 171.005 356.784C167.162 356.784 166.094 352.915 167.7 352.514C175.01 350.909 177.35 350.729 183.661 346.826C184.327 346.371 185.109 346.113 185.916 346.083Z" fill="#263238"/>
<path opacity="0.2" d="M183.26 327.509L184.746 339.303L194.02 338.671L192.611 327.509H183.26Z" fill="black"/>
<path d="M237.796 229.811C237.796 229.811 166.658 236.122 167.427 271.854C168.221 309.02 182.107 334.085 182.107 334.085H195.993C195.993 334.085 193.363 314.801 193.832 278.216C193.969 267.259 216.122 263.638 237.745 262.357C256.431 261.247 273.921 250.598 281.179 233.321L282.674 229.811H237.796Z" fill="#407BFF"/>
<path opacity="0.5" d="M237.796 229.811C237.796 229.811 166.658 236.122 167.427 271.854C168.221 309.02 182.107 334.085 182.107 334.085H195.993C195.993 334.085 193.363 314.801 193.832 278.216C193.969 267.259 216.122 263.638 237.745 262.357C256.431 261.247 273.921 250.598 281.179 233.321L282.674 229.811H237.796Z" fill="white"/>
<path d="M178.853 330.353C178.793 330.353 181.236 336.775 181.236 336.775L198.008 335.571L197.026 329.764L178.853 330.353Z" fill="#407BFF"/>
<path d="M256.473 189.656L247.446 224.44C245.138 233.351 243.973 242.52 243.979 251.725V267.891C243.979 271.973 246.985 275.287 250.7 275.287H296.97C300.685 275.287 303.691 271.973 303.691 267.891V251.725C303.688 242.519 304.856 233.351 307.167 224.44L315.135 193.696C316.364 188.973 313.136 184.302 308.67 184.302H262.93C261.411 184.349 259.952 184.902 258.783 185.872C257.614 186.841 256.801 188.173 256.473 189.656Z" fill="#263238"/>
<path d="M198.922 258.446L200.434 267.071C201.237 271.606 205.225 275.287 209.35 275.287H260.786C264.911 275.287 267.618 271.606 266.815 267.071L265.304 258.446C264.39 253.279 259.855 249.095 255.158 249.095H205.814C201.083 249.095 198.017 253.279 198.922 258.446Z" fill="#263238"/>
<path d="M265.739 283.946H238.795L236.165 275.287H268.37L265.739 283.946Z" fill="#407BFF"/>
<path d="M257.08 283.946H247.455V348.347H257.08V283.946Z" fill="#407BFF"/>
<path opacity="0.7" d="M257.08 348.347H247.455V285.492L257.08 286.474V348.347Z" fill="white"/>
<path opacity="0.7" d="M254.731 348.347H252.434V285.996L254.731 286.235V348.347Z" fill="white"/>
<path d="M274.399 358.304H230.127C229.869 358.302 229.618 358.218 229.41 358.065C229.202 357.913 229.048 357.698 228.968 357.453C228.889 357.207 228.889 356.943 228.968 356.697C229.048 356.451 229.202 356.237 229.41 356.084L236.43 350.96C239.805 348.488 243.878 347.154 248.061 347.151H256.473C260.654 347.155 264.724 348.489 268.096 350.96L275.125 356.084C275.333 356.237 275.488 356.452 275.567 356.699C275.646 356.945 275.645 357.211 275.565 357.457C275.484 357.703 275.328 357.917 275.119 358.069C274.91 358.221 274.658 358.304 274.399 358.304Z" fill="#407BFF"/>
</svg>
